<?xml version="1.0" encoding="UTF-8"?>
<svg fill="#6482d9f2" width="1200pt" height="1200pt" version="1.1" viewBox="0 0 1200 1200" xmlns="http://www.w3.org/2000/svg">
 <path d="m937.5 450h-300v-109.5c-0.011719-18.934-7.1836-37.16-20.074-51.023-12.895-13.867-30.551-22.34-49.434-23.727-18.883-1.3867-37.59 4.418-52.367 16.25h-1.875l-314.25 288.75c-7.8203 7.1055-12.277 17.184-12.277 27.75s4.457 20.645 12.277 27.75l316.12 290.25c13.297 10.668 29.828 16.488 46.875 16.5 11.309 0.070312 22.48-2.4961 32.625-7.5 12.465-6.0195 23.023-15.371 30.504-27.02 7.4766-11.648 11.586-25.141 11.871-38.98v-109.5h300c19.891 0 38.969-7.9023 53.031-21.969 14.066-14.062 21.969-33.141 21.969-53.031v-150c0-19.891-7.9023-38.969-21.969-53.031-14.062-14.066-33.141-21.969-53.031-21.969z"/>
</svg>
