<?xml version="1.0" encoding="UTF-8"?>
<svg fill="#6482d9f2" width="1200pt" height="1200pt" version="1.1" viewBox="0 0 1200 1200" xmlns="http://www.w3.org/2000/svg">
 <path d="m600 228c-98.66 0-193.28 39.191-263.04 108.96-69.766 69.762-108.96 164.38-108.96 263.04s39.191 193.28 108.96 263.04c69.762 69.766 164.38 108.96 263.04 108.96s193.28-39.191 263.04-108.96c69.766-69.762 108.96-164.38 108.96-263.04s-39.191-193.28-108.96-263.04c-69.762-69.766-164.38-108.96-263.04-108.96zm0 672c-79.566 0-155.87-31.605-212.13-87.867-56.262-56.262-87.867-132.57-87.867-212.13s31.605-155.87 87.867-212.13c56.262-56.262 132.57-87.867 212.13-87.867s155.87 31.605 212.13 87.867c56.262 56.262 87.867 132.57 87.867 212.13s-31.605 155.87-87.867 212.13c-56.262 56.262-132.57 87.867-212.13 87.867z"/>
 <path d="m626.88 480-50.879-50.879-145.44 145.44c-6.7383 6.75-10.527 15.902-10.527 25.441s3.7891 18.691 10.527 25.441l145.44 145.44 50.879-50.879-84-84h237.12v-72h-237.12z"/>
</svg>
