<svg width="1200pt" height="1200pt" version="1.1" viewBox="0 0 1200 1200" xmlns="http://www.w3.org/2000/svg">
 <path fill="#1B3992" d="m1026 269.04h-240c-12.238-33.82-33.434-63.684-61.32-86.398l98.281-98.641c9.3438-9.3477 12.996-22.969 9.5742-35.734-3.4219-12.77-13.395-22.738-26.16-26.16s-26.391 0.22656-35.734 9.5742l-114.36 114.36c-36.711-11.02-75.852-11.02-112.56 0l-114.36-113.76c-6.5742-8.0977-16.262-13.039-26.676-13.605-10.414-0.57031-20.582 3.2891-27.996 10.621-7.418 7.3281-11.391 17.453-10.945 27.871 0.44922 10.422 5.2773 20.164 13.297 26.832l98.039 98.039c-27.887 22.719-49.078 52.578-61.316 86.402h-240c-30.969 0-60.668 12.301-82.562 34.195-21.898 21.898-34.199 51.598-34.199 82.562v600c0 30.969 12.301 60.664 34.199 82.562 21.895 21.898 51.594 34.199 82.562 34.199h98.879v50.039c0 6.9375 2.7539 13.594 7.6602 18.496 4.9062 4.9062 11.562 7.6641 18.5 7.6641h77.641c7 0.097656 13.746-2.6172 18.73-7.5352 4.9844-4.9141 7.7891-11.625 7.7891-18.625v-48.961h394.08v48.961c0 6.9375 2.7578 13.594 7.6641 18.496 4.9062 4.9062 11.559 7.6641 18.496 7.6641h77.641c6.9609 0.03125 13.645-2.7109 18.574-7.6211 4.9336-4.9062 7.707-11.582 7.707-18.539v-48.961h98.879c30.965 0 60.664-12.301 82.562-34.199 21.895-21.895 34.199-51.594 34.199-82.559v-600c0.125-31.051-12.121-60.871-34.031-82.875-21.91-22-51.68-34.367-82.73-34.367zm-15.238 694.2c0 4.3086-3.4922 7.8008-7.8008 7.8008h-805.92c-4.3086 0-7.8008-3.4922-7.8008-7.8008v-554.28c0-4.3086 3.4922-7.8008 7.8008-7.8008h805.92c4.3086 0 7.8008 3.4922 7.8008 7.8008zm-172.8-280.92v176.4c-0.03125 6.3047-3.4023 12.121-8.8594 15.281-5.457 3.1602-12.176 3.1914-17.66 0.078125l-73.562-42.477v12c0.03125 17.469-6.9023 34.234-19.266 46.574-12.367 12.344-29.141 19.25-46.613 19.184h-244.32c-17.41 0-34.105-6.9141-46.414-19.227-12.309-12.309-19.227-29.004-19.227-46.414v-146.4c0-17.41 6.918-34.105 19.227-46.414 12.309-12.312 29.004-19.227 46.414-19.227h244.32c17.41 0 34.105 6.9141 46.414 19.227 12.309 12.309 19.227 29.004 19.227 46.414v12l73.441-42.359h-0.003906c3.625-2.168 7.8984-2.9766 12.062-2.2773 4.1641 0.69922 7.9414 2.8594 10.656 6.0898 2.7148 3.2305 4.1914 7.3242 4.1641 11.547zm-285.96-153c0-17.633 7.0039-34.543 19.473-47.008 12.465-12.469 29.375-19.473 47.008-19.473 17.633 0 34.539 7.0039 47.008 19.473 12.469 12.465 19.473 29.375 19.473 47.008 0 17.633-7.0039 34.539-19.473 47.008s-29.375 19.473-47.008 19.473c-17.633 0-34.543-7.0039-47.008-19.473-12.469-12.469-19.473-29.375-19.473-47.008zm-133.56 22.68c0-11.488 4.5625-22.508 12.688-30.633s19.141-12.688 30.633-12.688c11.488 0 22.508 4.5625 30.629 12.688 8.125 8.125 12.688 19.145 12.688 30.633s-4.5625 22.508-12.688 30.633c-8.1211 8.125-19.141 12.688-30.629 12.688-11.492 0-22.508-4.5625-30.633-12.688s-12.688-19.145-12.688-30.633z"/>
</svg>
